<svg xmlns="http://www.w3.org/2000/svg" xmlns:xlink="http://www.w3.org/1999/xlink" width="32" height="32" viewBox="0 0 32 32"><defs><linearGradient id="a"><stop offset="0" stop-color="#5a5a5a"/><stop offset="1" stop-color="#656e85"/></linearGradient><linearGradient id="b" x1="1056.035" x2="1031.176" y1="544.13" y2="517.701" gradientTransform="matrix(1.02524 0 0 1.02524 -1054.491 491.682)" gradientUnits="userSpaceOnUse" xlink:href="#a"/></defs><g transform="translate(0 -1020.362)"><rect width="32" height="32" y="1020.362" fill="url(#b)" rx="6.763" ry="6.763"/><path fill="#fff" style="text-indent:0;text-align:start;line-height:normal;text-transform:none;block-progression:tb" d="M 16 8.5 C 11.863787 8.5 8.5 11.8638 8.5 16 C 8.5 20.1362 11.863787 23.5 16 23.5 C 20.136213 23.5 23.5 20.1362 23.5 16 C 23.5 11.8638 20.136213 8.5 16 8.5 z M 16 9.5 C 19.595773 9.5 22.5 12.4043 22.5 16 C 22.5 19.5958 19.595773 22.5 16 22.5 C 12.404227 22.5 9.5 19.5958 9.5 16 C 9.5 15.7753 9.509101 15.56255 9.53125 15.34375 C 9.863486 12.06185 12.628963 9.5 16 9.5 z M 15.90625 12 A 0.50004998 0.50004998 0 0 0 15.5 12.5 L 15.5 15.5 L 12.5 15.5 A 0.50004998 0.50004998 0 1 0 12.5 16.5 L 15.5 16.5 L 15.5 19.5 A 0.50004998 0.50004998 0 1 0 16.5 19.5 L 16.5 16.5 L 19.5 16.5 A 0.50004998 0.50004998 0 1 0 19.5 15.5 L 16.5 15.5 L 16.5 12.5 A 0.50004998 0.50004998 0 0 0 16 12 A 0.50004998 0.50004998 0 0 0 15.90625 12 z " color="#000" font-family="sans-serif" font-weight="400" overflow="visible" transform="translate(0 1020.362)"/></g></svg>