<svg xmlns="http://www.w3.org/2000/svg" xmlns:xlink="http://www.w3.org/1999/xlink" width="25" height="25" viewBox="0 0 25 25"><defs><linearGradient id="a"><stop offset="0" stop-color="#5a5a5a"/><stop offset="1" stop-color="#656e85"/></linearGradient><linearGradient id="b" x1="1056.035" x2="1031.176" y1="544.13" y2="517.701" gradientTransform="matrix(.80097 0 0 .80097 -828.238 619.344)" gradientUnits="userSpaceOnUse" xlink:href="#a"/></defs><g fill="#fff" transform="translate(4.417 -1032.375)"><rect width="25" height="25" x="-4.417" y="1032.375" fill="url(#b)" rx="5.283" ry="5.283"/><path style="text-indent:0;text-align:start;line-height:normal;text-transform:none;block-progression:tb" d="M 8.09375 6 L 8.03125 6.4375 C 7.966045 6.8994 7.963498 7.4353 8 8 L 5.3125 8 L 5.5 8.625 C 6.477288 11.8944 8.8060519 12.65545 9.84375 12.96875 C 9.903002 13.02675 9.9373743 13.10305 10 13.15625 L 10.03125 16 L 12 16 L 12 18 L 9 18 L 9 18.5 L 9 21 L 16.03125 21 L 16.03125 18 L 13 18 L 13 16 L 15 16 L 15 13.15625 C 15.07242 13.09525 15.119155 13.0045 15.1875 12.9375 C 16.244712 12.6163 18.504824 11.8496 19.46875 8.625 L 19.6875 8 L 17.03125 8 C 17.05833 7.4505 17.04475 6.9239 16.96875 6.4375 L 16.90625 6 L 8.09375 6 z M 9.0625 7 L 15.9375 7 C 16.01421 7.9142 15.97555 9.00585 15.6875 10.03125 C 15.359176 11.19995 14.787675 12.1835 14.21875 12.5625 L 14 12.71875 L 14 15 L 13 15 L 12 15 L 11 15 L 11 12.71875 L 10.78125 12.5625 C 10.225476 12.1954 9.6621745 11.1414 9.34375 9.9375 C 9.0658256 8.8868 9.0083338 7.8313 9.0625 7 z M 6.75 9 L 8.125 9 C 8.187948 9.4028 8.2691657 9.7874 8.375 10.1875 C 8.4963065 10.6462 8.6583609 11.0921 8.84375 11.5 C 8.1067466 11.0884 7.3165413 10.384 6.75 9 z M 16.9375 9 L 18.21875 9 C 17.671793 10.3334 16.934781 11.0191 16.21875 11.4375 C 16.385303 11.0755 16.542079 10.7189 16.65625 10.3125 C 16.776404 9.8847 16.871434 9.4407 16.9375 9 z M 10 19 L 15.03125 19 L 15.03125 20 L 10 20 L 10 19 z " color="#000" font-family="sans-serif" font-weight="400" overflow="visible" transform="translate(-4.417 1032.375)"/></g></svg>