<svg xmlns="http://www.w3.org/2000/svg" xmlns:serif="http://www.serif.com/" fill-rule="evenodd" stroke-linejoin="round" stroke-miterlimit="1.414" clip-rule="evenodd" viewBox="0 0 32 32"><rect width="32" height="32" fill="none" serif:id="match league versus "/><path fill-rule="nonzero" d="M8.988,22.016c-0.011,0.543 -0.419,0.99 -1.002,1.002l-4.007,0c-0.771,-0.015 -1.312,-1.046 -0.743,-1.674c0.187,-0.206 0.46,-0.324 0.743,-0.33l3.005,0l0,-2.003l-3.005,0c-0.892,-0.018 -1.387,-1.459 -0.424,-1.909c0.132,-0.062 0.276,-0.092 0.424,-0.095c1.349,0 2.698,-0.025 4.046,0.001c0.529,0.031 0.952,0.437 0.963,1.001l0,1.002l2.003,0l0,-6.011l-2.003,0l0,1.002c-0.003,0.161 -0.018,0.214 -0.049,0.31c-0.129,0.397 -0.524,0.683 -0.953,0.692l-4.007,0c-0.892,-0.018 -1.387,-1.459 -0.424,-1.909c0.132,-0.062 0.276,-0.092 0.424,-0.095l3.005,0l0,-2.003l-3.005,0c-0.895,-0.018 -1.365,-1.469 -0.424,-1.909c0.132,-0.062 0.276,-0.092 0.424,-0.094c1.349,0 2.698,-0.026 4.046,0c0.529,0.031 0.952,0.438 0.963,1.001l0,1.002l3.005,0c0.019,0.001 0.037,0.001 0.056,0.002c0.182,0.015 0.232,0.035 0.327,0.074c0.367,0.152 0.605,0.446 0.619,0.926l0,3.005l6.01,0l0,-3.005c0.005,-0.183 0.022,-0.234 0.056,-0.331c0.138,-0.392 0.447,-0.657 0.946,-0.671l3.005,0l0,-1.002c0.003,-0.161 0.018,-0.214 0.049,-0.309c0.129,-0.398 0.524,-0.684 0.953,-0.692c1.349,0 2.698,-0.027 4.047,0c0.868,0.052 1.339,1.462 0.384,1.909c-0.132,0.061 -0.276,0.091 -0.424,0.094l-3.005,0l0,2.003l3.005,0c0.749,0.015 1.276,0.987 0.794,1.613c-0.187,0.242 -0.484,0.385 -0.794,0.391l-4.007,0c-0.544,-0.011 -0.99,-0.419 -1.002,-1.002l0,-1.002l-2.003,0l0,6.011l2.003,0l0,-1.002c0.003,-0.161 0.018,-0.214 0.049,-0.309c0.129,-0.398 0.524,-0.684 0.953,-0.693c1.349,0 2.698,-0.026 4.047,0.001c0.877,0.053 1.324,1.469 0.384,1.909c-0.132,0.061 -0.276,0.091 -0.424,0.094l-3.005,0l0,2.003l3.005,0c0.892,0.018 1.387,1.459 0.424,1.91c-0.132,0.061 -0.276,0.091 -0.424,0.094l-4.007,0c-0.161,-0.003 -0.214,-0.018 -0.31,-0.049c-0.398,-0.129 -0.683,-0.524 -0.692,-0.953l0,-1.002l-3.005,0c-0.183,-0.005 -0.234,-0.022 -0.331,-0.056c-0.392,-0.137 -0.657,-0.446 -0.671,-0.945l0,-3.006l-6.01,0l0,3.006c-0.005,0.182 -0.022,0.233 -0.056,0.33c-0.138,0.393 -0.447,0.657 -0.946,0.671l-3.005,0l0,1.002Z"/></svg>