<svg xmlns="http://www.w3.org/2000/svg" width="24" height="24" viewBox="0 0 24 24"><path d="M 5.0722656 0 C 2.2623763 0 0 2.2623763 0 5.0722656 L 0 18.927734 C 0 21.737624 2.2623763 24 5.0722656 24 L 18.927734 24 C 21.737624 24 24 21.737624 24 18.927734 L 24 5.0722656 C 24 2.2623763 21.737624 0 18.927734 0 L 5.0722656 0 z M 12 6 C 15.319631 6 18 8.6804 18 12 C 18 15.3197 15.319631 18 12 18 C 8.680369 18 6 15.3197 6 12 C 6 8.6804 8.680369 6 12 6 z M 9.5253906 8.8183594 L 8.8183594 9.5253906 L 11.292969 12 L 8.8183594 14.476562 L 9.5253906 15.183594 L 12 12.707031 L 14.476562 15.183594 L 15.183594 14.476562 L 12.707031 12 L 15.183594 9.5253906 L 14.476562 8.8183594 L 12 11.292969 L 9.5253906 8.8183594 z "/></svg>