<svg xmlns="http://www.w3.org/2000/svg" xmlns:xlink="http://www.w3.org/1999/xlink" width="48" height="48" viewBox="0 0 48 48"><defs><linearGradient id="b" x1="1073.403" x2="1097.116" y1="516.451" y2="544.308" gradientTransform="translate(-1643.872 211.343) scale(1.53785)" gradientUnits="userSpaceOnUse" xlink:href="#a"/><linearGradient id="a"><stop offset="0" stop-color="#16ff6a"/><stop offset="1" stop-color="#0090a5"/></linearGradient></defs><g transform="translate(0 -1004.362)"><rect width="48" height="48" y="1004.362" fill="url(#b)" rx="10.144" ry="10.144"/><path fill="#fff" d="m 34.4375,1014.3622 a 0.50004989,0.50004989 0 0 0 -0.1875,0.125 l -1.84375,1.8438 0,0.031 a 0.50006652,0.50003326 0 0 0 -0.03125,0.031 l -1.4375,1.4062 -1.40625,-1.4062 a 0.50004998,0.50004998 0 0 0 -0.40625,-0.1563 0.50004998,0.50004998 0 0 0 -0.28125,0.1563 l -5.125,5.125 a 0.50004998,0.50004998 0 1 0 0.71875,0.6875 l 4.75,-4.75 1.0625,1.0625 -5.71875,5.7187 -7.28125,-7.25 a 0.50004992,0.50004992 0 0 0 -0.0625,-0.094 0.50004992,0.50004992 0 0 0 -0.0625,-0.062 l -1.25,-1.2813 c -0.465877,-0.4659 -1.105218,-0.6875 -1.71875,-0.6875 -0.613533,0 -1.221618,0.2216 -1.6875,0.6875 l -0.875,0.9063 c -0.931739,0.9318 -0.931741,2.4432 0,3.375 l 1.21875,1.25 a 0.50004992,0.50004992 0 0 0 0.09375,0.094 0.50004992,0.50004992 0 0 0 0.15625,0.125 l 7.1875,7.1875 -7.65625,7.6563 a 0.50004989,0.50004989 0 0 0 0,0.6875 l 0.34375,0.3437 -1.53125,1.5 a 0.50006652,0.50003326 0 0 0 0,0.7188 l 0.40625,0.4062 -1.8125,1.8438 0.71875,0.7187 1.8125,-1.8437 0.4375,0.4375 a 0.50006652,0.50003326 0 0 0 0.71875,0 l 1.5,-1.5313 0.09375,0.094 a 0.50004989,0.50004989 0 0 0 0.71875,0 l 7.625,-7.6563 7.9375,7.9688 a 0.50004998,0.50004998 0 0 0 0.0625,0.062 l 0.03125,0.031 a 0.50004998,0.50004998 0 0 0 0.03125,0.031 0.50004992,0.50004992 0 0 0 0,0.031 0.50004998,0.50004998 0 0 0 0.03125,0 0.50004992,0.50004992 0 0 0 0.15625,0.094 l 5.34375,1.75 a 0.50004998,0.50004998 0 0 0 0.625,-0.625 l -1.75,-5.25 a 0.50004992,0.50004992 0 0 0 -0.0625,-0.1563 0.50004998,0.50004998 0 0 0 0,-0.031 0.50004992,0.50004992 0 0 0 0,-0.031 0.50004998,0.50004998 0 0 0 -0.03125,0 0.50004992,0.50004992 0 0 0 0,-0.031 0.50004998,0.50004998 0 0 0 -0.03125,0 0.50004992,0.50004992 0 0 0 0,-0.031 0.50004998,0.50004998 0 0 0 -0.15625,-0.125 l -7.90625,-7.9375 7.84375,-7.8437 a 0.50006652,0.50003326 0 0 0 0.0625,-0.062 l 0,-0.031 a 0.50006652,0.50003326 0 0 0 0.0625,-0.062 l 1.75,-1.7187 a 0.50004989,0.50004989 0 0 0 0,-0.7188 l -2.6875,-2.6875 a 0.50004989,0.50004989 0 0 0 -0.5,-0.125 z m 0.15625,1.1875 1.96875,1.9688 -1.1875,1.1562 -1.9375,-1.9375 1.15625,-1.1875 z m -20.4375,0.2813 c 0.354845,-10e-5 0.723886,0.1613 1,0.4375 l 1,0.9687 -2.875,2.875 -1,-1 c -0.55224,-0.5522 -0.552302,-1.4163 0,-1.9687 l 0.90625,-0.875 c 0.276137,-0.2762 0.613904,-0.4375 0.96875,-0.4375 z m 18.5625,1.625 1.96875,1.9687 -1.0625,1.0625 -1.96875,-1.9687 1.0625,-1.0625 z m -15.875,0.4687 6.96875,7 -1.0625,1.0625 -6.96875,-7 1.0625,-1.0625 z m 14.09375,1.3125 2,1.9375 -5.75,5.75 -1.9375,-1.9375 a 0.50821531,0.50821531 0 0 0 -0.03125,-0.031 l 5.71875,-5.7188 z m -15.84375,0.4375 6.96875,7 -1.125,1.125 -6.96875,-7 1.125,-1.125 z m 9.4375,5.9688 1.96875,1.9687 -10.875,10.8438 -1.96875,-1.9688 10.875,-10.8437 z m 2.65625,2.6562 7.6875,7.6875 -1.09375,1.0938 -7.65625,-7.7188 1.0625,-1.0625 z m -1.75,1.7813 7.65625,7.7187 -1.0625,1.0625 -7.6875,-7.6875 1.09375,-1.0937 z m 9.9375,6.8437 1.21875,3.625 -3.625,-1.2187 2.40625,-2.4063 z m -21.8125,1.0313 0.84375,0.8437 -1.0625,1.0938 -0.875,-0.8438 1.09375,-1.0937 z" color="#000" font-family="Sans" font-weight="400" overflow="visible" style="line-height:normal;-inkscape-font-specification:Sans;text-indent:0;text-align:start;text-decoration-line:none;text-transform:none;block-progression:tb;marker:none"/></g></svg>