<svg xmlns="http://www.w3.org/2000/svg" xmlns:xlink="http://www.w3.org/1999/xlink" width="32" height="32" viewBox="0 0 32 32"><defs><linearGradient id="a"><stop offset="0" stop-color="#16ff6a"/><stop offset="1" stop-color="#0090a5"/></linearGradient><linearGradient id="b" x1="1073.403" x2="1097.116" y1="516.451" y2="544.308" gradientTransform="matrix(1.02524 0 0 1.02524 -1095.915 491.682)" gradientUnits="userSpaceOnUse" xlink:href="#a"/></defs><g transform="translate(0 -1020.362)"><rect width="32" height="32" y="1020.362" fill="url(#b)" rx="6.763" ry="6.763"/><path fill="#fff" style="text-indent:0;text-align:start;line-height:normal;text-transform:none;block-progression:tb" d="M 15.90625 8.5 A 0.50004998 0.50004998 0 0 0 15.5 9 L 15.5 13 A 0.50004998 0.50004998 0 1 0 16.5 13 L 16.5 9 A 0.50004998 0.50004998 0 0 0 16 8.5 A 0.50004998 0.50004998 0 0 0 15.90625 8.5 z M 13.90625 9.8125 A 0.50004995 0.50004995 0 0 0 13.875 9.84375 C 10.590586 10.88515 8.5686838 14.1574 9.09375 17.5625 C 9.6187766 20.9676 12.55444 23.4962 16 23.5 C 19.445564 23.5 22.373743 20.99765 22.90625 17.59375 C 23.438757 14.18985 21.407078 10.89235 18.125 9.84375 A 0.50035596 0.50035596 0 0 0 17.8125 10.78125 C 20.631764 11.68195 22.3949 14.5137 21.9375 17.4375 C 21.480099 20.3613 18.959709 22.5033 16 22.5 C 13.040295 22.5 10.513475 20.33115 10.0625 17.40625 C 9.6114908 14.48145 11.366229 11.67575 14.1875 10.78125 A 0.50004995 0.50004995 0 0 0 14.03125 9.8125 A 0.50004995 0.50004995 0 0 0 13.90625 9.8125 z " color="#000" font-family="sans-serif" font-weight="400" overflow="visible" transform="translate(0 1020.362)"/></g></svg>