<svg xmlns="http://www.w3.org/2000/svg" xmlns:xlink="http://www.w3.org/1999/xlink" id="Layer_1" width="28" height="28" viewBox="0 0 28 28"><defs id="defs11"><linearGradient id="linearGradient3456" x1="868.253" x2="937.656" y1="521.354" y2="588.736" gradientTransform="translate(-774.065 -462.595) scale(.89708)" gradientUnits="userSpaceOnUse" xlink:href="#linearGradient3858"/><linearGradient id="linearGradient3858"><stop id="stop3860" offset="0" stop-color="#24f3d2"/><stop id="stop3870" offset=".394" stop-color="#0674f0"/><stop id="stop3868" offset=".507" stop-color="#6961b5"/><stop id="stop3866" offset=".813" stop-color="#f34660"/><stop id="stop3862" offset="1" stop-color="#ee078d"/></linearGradient></defs><g id="g4159"><rect id="rect3360" width="28" height="28" fill="url(#linearGradient3456)" rx="5.917" ry="5.917"/><path id="path7" fill="#fff" d="M 14,6.986328 C 10.133,6.986328 6.9863281,10.133 6.9863281,14 c 0,1.874 0.7296874,3.634984 2.0546874,4.958984 C 10.365016,20.283984 12.127,21.013672 14,21.013672 17.867,21.013672 21.013672,17.867 21.013672,14 21.013672,10.133 17.867,6.986328 14,6.986328 Z m 0,1 c 3.315,0 6.013672,2.697672 6.013672,6.013672 0,1.573 -0.613469,3.001219 -1.605469,4.074219 -0.687,-0.814 -1.574453,-1.412907 -2.564453,-1.753907 0.671,-0.551 1.109375,-1.380171 1.109375,-2.326171 0,-1.648 -1.340719,-2.988282 -3.011719,-2.988282 -1.647,0 -2.988281,1.339719 -2.988281,3.011719 0,0.929 0.435516,1.750828 1.103516,2.298828 -0.97,0.332 -1.844391,0.912266 -2.5253911,1.697266 C 8.5362499,16.908672 7.986328,15.498 7.986328,14 7.986328,10.684 10.685,7.986328 14,7.986328 Z m -0.03516,4.019531 c 1.097,0 1.988281,0.891719 1.988281,2.011719 0,1.074 -0.857828,1.947422 -1.923828,1.982422 -0.029,0 -0.05694,-0.0059 -0.08594,-0.0059 -0.025,0 -0.04922,0.0049 -0.07422,0.0059 -1.063,-0.04 -1.916016,-0.910859 -1.916016,-2.005859 0,-1.096 0.891719,-1.988282 2.011719,-1.988282 z m -0.0957,4.992188 c 0.024,0.001 0.04827,0.0078 0.07227,0.0078 l 0.02344,0 c 0.022,0 0.0405,-0.0068 0.0625,-0.0078 1.419,0.025 2.743578,0.668953 3.642578,1.751953 C 16.653922,19.539 15.383,20.013672 14,20.013672 c -1.377,0 -2.682188,-0.463547 -3.742188,-1.310547 0.9,-1.056 2.213329,-1.683078 3.611329,-1.705078 z"/></g></svg>